<?xml version="1.0" encoding="iso-8859-1"?>
<!-- Generator: Adobe Illustrator 19.0.0, SVG Export Plug-In . SVG Version: 6.00 Build 0)  -->
<svg version="1.1" id="Layer_1" xmlns="http://www.w3.org/2000/svg" xmlns:xlink="http://www.w3.org/1999/xlink" x="0px" y="0px"
	 viewBox="0 0 512 512" style="enable-background:new 0 0 512 512;" xml:space="preserve">
<path style="fill:#F7B239;" d="M469.077,355.948c11.709,0,21.208,9.499,21.208,21.208v25.839c0,30.764-24.938,55.702-55.702,55.702
	H77.417c-30.764,0-55.688-24.938-55.688-55.702v-25.839c0-11.709,9.485-21.208,21.194-21.208h3.814l180.184-72.361l238.341,72.361
	H469.077z"/>
<polygon style="fill:#9AD14B;" points="465.263,190.7 465.263,285.005 414.852,285.005 298.818,285.005 49.285,285.005 
	49.285,190.7 "/>
<polygon style="fill:#8BB73D;" points="97.968,187.885 97.968,287.82 92.069,287.82 78.488,287.82 49.285,287.82 49.285,187.885 "/>
<path style="fill:#B27214;" d="M465.263,262.488c12.905,0,24.586,5.235,33.044,13.693c8.458,8.458,13.693,20.139,13.693,33.03
	c0,25.81-20.927,46.737-46.737,46.737H46.737c-12.905,0-24.586-5.235-33.044-13.693C5.235,333.797,0,322.116,0,309.211
	c0-25.796,20.927-46.723,46.737-46.723h2.547h249.533h116.034H465.263z"/>
<polygon style="fill:#F4DE3B;" points="414.852,262.488 414.852,265.64 358.404,322.074 298.818,262.488 "/>
<path style="fill:#F7B239;" d="M490.285,192.009c0,11.709-9.499,21.208-21.208,21.208h-3.814H49.285h-6.361
	c-5.854,0-11.16-2.378-14.988-6.206c-3.828-3.842-6.206-9.148-6.206-15.002c0-76.601,62.091-138.706,138.692-138.706h191.157
	c38.293,0,72.97,15.523,98.077,40.63C474.762,119.025,490.285,153.701,490.285,192.009z"/>
<g>
	<path style="fill:#E09B2D;" d="M150.265,403.009v-25.853c0-11.709,9.485-21.194,21.194-21.194H46.737h-3.814
		c-11.709,0-21.194,9.485-21.194,21.194v25.853c0,30.75,24.924,55.688,55.688,55.688h128.535
		C175.188,458.697,150.265,433.76,150.265,403.009z"/>
	<path style="fill:#E09B2D;" d="M129.625,192.023c0-76.601,62.091-138.706,138.692-138.706H160.421
		c-76.601,0-138.692,62.105-138.692,138.706c0,5.854,2.378,11.16,6.206,14.988c3.828,3.828,9.134,6.206,14.988,6.206h6.361h101.534
		c-5.854,0-11.16-2.378-14.988-6.206C132.003,203.183,129.625,197.877,129.625,192.023z"/>
</g>
<path style="fill:#995E10;" d="M99.92,309.211c0-17.11,9.203-32.067,22.921-40.212l-6.526-6.526H49.285h-2.547
	C20.927,262.474,0,283.401,0,309.211c0,12.905,5.235,24.586,13.693,33.044c8.458,8.458,20.139,13.693,33.044,13.693h2.547h97.373
	c-12.905,0-24.586-5.235-33.044-13.693C105.156,333.797,99.92,322.116,99.92,309.211z"/>
<g>
	<circle style="fill:#F4DE3B;" cx="152.54" cy="96.402" r="10.555"/>
	<circle style="fill:#F4DE3B;" cx="359.474" cy="96.402" r="10.555"/>
	<circle style="fill:#F4DE3B;" cx="221.513" cy="96.402" r="10.555"/>
	<circle style="fill:#F4DE3B;" cx="290.501" cy="96.402" r="10.555"/>
</g>
<g>
</g>
<g>
</g>
<g>
</g>
<g>
</g>
<g>
</g>
<g>
</g>
<g>
</g>
<g>
</g>
<g>
</g>
<g>
</g>
<g>
</g>
<g>
</g>
<g>
</g>
<g>
</g>
<g>
</g>
</svg>
